:SAMPLES-PER-SECOND 30
:FULLY-SPECIFIED
:DEGREES
291
root  -9.1464 39.1916 40.5983 -1.04623 -5.48037 -4.10949
RightUpLeg  -10.7058 0.159562 7.08831
RightLeg  17.9456 4.57803 -0.454545
RightFoot  -9.81799 -0.0680384 3.19004
RightToes  -5.82073e-011 -3.18055e-015 -2.98177e-016
Spine  6.31238 -0.0810215 10.0095
Spine1  8.13419 0.428939 1.8247
HEad  -21.7767 0.881369 4.20266
LeftShoulder1  -3.88251e-019 9.70628e-020 -3.87848e-018
LeftArm  -24.2224 44.7147 -67.4737
LeftForeArm  -0.179133 -16.5257 -1.88711
LeftHand  -0.890675 -4.45283 11.1665
RightShoulder  7.40844 10.3734 35.2744
RightArm  12.7923 -35.2561 21.6825
RightForeArm  -11.0169 22.1748 -11.3836
RightHand  -1.11293 2.08916 -16.9791
LeftUpLeg  -14.2913 -0.632854 5.60613
LeftLeg  25.7191 -0.483713 7.89452
LeftFoot  -12.3859 0.00573737 -6.45604
LeftToes  5.79026e-011 9.70705e-012 -3.73859e-011
292
root  -9.08937 39.1 40.464 -1.84381 -6.18676 -4.47415
RightUpLeg  -10.526 0.147663 7.43046
RightLeg  18.9607 5.14034 -0.520345
RightFoot  -10.3869 -0.0672422 3.87709
RightToes  -5.82073e-011 -3.18055e-015 -2.98177e-016
Spine  6.64869 0.24474 10.9871
Spine1  8.54479 1.09151 1.27864
HEad  -20.824 0.618828 4.61345
LeftShoulder1  -3.88251e-019 9.70628e-020 -3.87848e-018
LeftArm  -23.2763 40.6613 -69.0403
LeftForeArm  -4.79869 -19.0985 -1.07076
LeftHand  -0.941667 -3.92201 12.4486
RightShoulder  7.31496 10.3421 34.8663
RightArm  11.5899 -30.09 24.6076
RightForeArm  -6.39542 19.8656 -9.30804
RightHand  -1.16072 2.29535 -17.2406
LeftUpLeg  -14.4831 1.27267 5.72432
LeftLeg  28.6515 0.39873 9.2799
LeftFoot  -13.5248 -0.0640288 -7.31835
LeftToes  5.79026e-011 9.70705e-012 -3.73859e-011
293
root  -9.0175 39.1033 40.3991 -2.41187 -7.1688 -4.23026
RightUpLeg  -10.2973 0.257943 7.28709
RightLeg  19.2951 5.87061 -0.734099
RightFoot  -10.5519 -0.0713129 4.32404
RightToes  -5.82073e-011 -3.18055e-015 -2.98177e-016
Spine  6.15831 0.454243 10.7237
Spine1  9.17169 1.43432 0.922184
HEad  -18.3009 1.22523 4.43721
LeftShoulder1  -3.88251e-019 9.70628e-020 -3.87848e-018
LeftArm  -20.3098 38.3893 -70.4876
LeftForeArm  -13.4534 -22.6413 0.694778
LeftHand  -1.01954 -4.05551 13.269
RightShoulder  7.22107 10.2923 34.4939
RightArm  6.45233 -25.1563 28.2447
RightForeArm  3.1572 16.677 -6.30664
RightHand  -1.16775 2.50024 -16.9103
LeftUpLeg  -13.7701 2.45952 4.94085
LeftLeg  29.8579 -0.701542 9.01856
LeftFoot  -13.9876 -0.100349 -8.0605
LeftToes  5.79026e-011 9.70705e-012 -3.73859e-011
294
root  -8.89856 39.1329 40.3702 -2.82634 -7.87735 -3.79248
RightUpLeg  -10.1395 0.0586125 6.76977
RightLeg  19.486 6.69233 -0.735903
RightFoot  -10.5341 -0.0769182 4.53224
RightToes  -5.82073e-011 -3.18055e-015 -2.98177e-016
Spine  5.70733 0.307286 10.2998
Spine1  8.98747 1.38352 0.425913
HEad  -14.8027 2.27376 3.66415
LeftShoulder1  -3.88251e-019 9.70628e-020 -3.87848e-018
LeftArm  -15.9267 37.7727 -71.565
LeftForeArm  -22.3156 -26.8034 3.49886
LeftHand  -1.06328 -4.80677 12.8022
RightShoulder  7.00622 10.1755 33.6363
RightArm  2.20193 -22.356 32.2165
RightForeArm  11.0424 14.4192 -5.25369
RightHand  -1.12189 2.63777 -15.98
LeftUpLeg  -12.4401 2.80519 3.55977
LeftLeg  29.2371 -2.98723 7.44071
LeftFoot  -14.2121 -0.108185 -7.16473
LeftToes  5.79026e-011 9.70705e-012 -3.73859e-011
295
root  -8.74666 39.2099 40.3607 -3.18111 -8.06066 -3.48933
RightUpLeg  -9.59021 -0.340477 6.14324
RightLeg  18.981 7.38091 -0.365643
RightFoot  -10.078 -0.102113 4.72486
RightToes  -5.82073e-011 -3.18055e-015 -2.98177e-016
Spine  5.77304 -0.122901 9.94006
Spine1  7.74368 1.02295 -0.218023
HEad  -11.1897 3.29678 2.60257
LeftShoulder1  -3.88251e-019 9.70628e-020 -3.87848e-018
LeftArm  -13.8383 38.3148 -72.3623
LeftForeArm  -25.7891 -31.3138 5.74282
LeftHand  -1.03553 -5.50321 11.6718
RightShoulder  6.73773 10.0148 32.5773
RightArm  2.30172 -22.0674 35.2346
RightForeArm  11.4852 15.2777 -6.21716
RightHand  -1.02761 2.38518 -15.1224
LeftUpLeg  -10.6498 2.18928 2.1672
LeftLeg  26.8877 -3.64985 6.46272
LeftFoot  -14.0641 -0.0785136 -4.66353
LeftToes  5.79026e-011 9.70705e-012 -3.73859e-011
296
root  -8.58635 39.3508 40.3664 -3.4757 -8.01457 -3.27189
RightUpLeg  -8.58637 -0.496668 5.58008
RightLeg  17.5128 7.62683 -0.026193
RightFoot  -9.09136 -0.152603 4.90237
RightToes  -5.82073e-011 -3.18055e-015 -2.98177e-016
Spine  5.89308 -0.45704 9.0969
Spine1  6.52402 0.590135 -0.525134
HEad  -8.30548 4.10594 1.61212
LeftShoulder1  -3.88251e-019 9.70628e-020 -3.87848e-018
LeftArm  -13.9426 39.0832 -73.3422
LeftForeArm  -23.7197 -35.6047 6.92313
LeftHand  -1.02264 -6.06574 10.9669
RightShoulder  6.63652 9.91438 32.2571
RightArm  7.59939 -22.8349 36.2859
RightForeArm  3.32511 18.8287 -8.70912
RightHand  -0.999507 2.14506 -15.1604
LeftUpLeg  -8.81693 0.627517 1.07796
LeftLeg  23.8814 -1.66846 6.77297
LeftFoot  -13.3695 -0.0422236 -2.51874
LeftToes  5.79026e-011 9.70705e-012 -3.73859e-011
297
root  -8.42243 39.4889 40.3718 -3.65788 -7.96277 -2.86282
RightUpLeg  -7.85323 -0.603659 4.94484
RightLeg  16.142 7.69245 -0.0203725
RightFoot  -8.10111 -0.194484 4.81131
RightToes  -5.82073e-011 -3.18055e-015 -2.98177e-016
Spine  5.56967 -0.487223 7.38068
Spine1  6.26658 0.224412 0.0684414
HEad  -6.56964 4.65663 0.918949
LeftShoulder1  -3.88251e-019 9.70628e-020 -3.87848e-018
LeftArm  -14.2516 39.4189 -74.8753
LeftForeArm  -18.9026 -38.7149 8.12267
LeftHand  -1.05562 -6.82367 10.6166
RightShoulder  6.77718 9.95104 32.9244
RightArm  14.8573 -23.6352 35.4929
RightForeArm  -8.07312 23.6778 -12.5029
RightHand  -1.09255 2.5031 -15.8285
LeftUpLeg  -7.63729 -1.42582 0.0841859
LeftLeg  21.767 1.06363 7.45365
LeftFoot  -12.1894 -0.0158985 -2.00266
LeftToes  5.79026e-011 9.70705e-012 -3.73859e-011
